Coordinates
version=1
nRows=6
nColumns=40
inDegrees=yes

Units are S.I. units (second, meters, Newtons, ...)
If the header above contains a line with 'inDegrees', this indicates whether rotational values are in degrees (yes) or radians (no).

endheader
time	pelvis_tilt	pelvis_list	pelvis_rotation	pelvis_tx	pelvis_ty	pelvis_tz	hip_flexion_r	hip_adduction_r	hip_rotation_r	knee_angle_r	knee_angle_r_beta	ankle_angle_r	subtalar_angle_r	mtp_angle_r	hip_flexion_l	hip_adduction_l	hip_rotation_l	knee_angle_l	knee_angle_l_beta	ankle_angle_l	subtalar_angle_l	mtp_angle_l	lumbar_extension	lumbar_bending	lumbar_rotation	arm_flex_r	arm_add_r	arm_rot_r	elbow_flex_r	pro_sup_r	wrist_flex_r	wrist_dev_r	arm_flex_l	arm_add_l	arm_rot_l	elbow_flex_l	pro_sup_l	wrist_flex_l	wrist_dev_l
     14.27500000000000035527	     32.46062141907502507365	     -4.64236685622920042249	   -177.95756388330994468561	      0.29587059856736463992	      0.80250226779538813560	     -0.95053966847620419145	     65.71104119570399859640	    -38.50355236768710653905	    -19.72974392127628817661	     30.40813342971604882337	      0.53072204773430076141	    -15.83896505968328405345	      0.00000000000000000000	      0.00000000000000000000	     59.01580054321252788441	    -28.62349337768504753399	    -23.85113632971098951430	     27.90188419425584953615	      0.48697974669992966090	    -12.39276518966799223165	      0.00000000000000000000	      0.00000000000000000000	    -64.47791436415153043527	      1.08449279661520558982	     -2.82932945998578633251	     76.34098091812920472421	    -11.28963762294365658079	     53.26092394315283229389	      3.58484177215516464088	     41.33691951807809061847	      0.00000000000000000000	      0.00000000000000000000	     82.53587859237580914851	    -13.29178862321731635632	     54.06919434664076362651	     14.79323359884699051747	     74.76714916453553883002	      0.00000000000000000000	      0.00000000000000000000
     14.27999999999999936051	     32.44987801019679096726	     -4.65081707625847773357	   -177.94972628050339835681	      0.29590514557549080221	      0.80244246409745245696	     -0.95056790439385674407	     65.72210568395438201605	    -38.51220217032031456483	    -19.68397220407981507151	     30.41629195082026981822	      0.53086444078966288362	    -15.85833004255977307650	      0.00000000000000000000	      0.00000000000000000000	     59.01533736787542494540	    -28.61396044065440591453	    -23.83859394934965791890	     27.91347602586463239049	      0.48718206232783972665	    -12.34396995591974643958	      0.00000000000000000000	      0.00000000000000000000	    -64.49318327259233285531	      1.05496243274502909948	     -2.86548655085059289505	     76.31977992434363500251	    -11.35609157396254964567	     53.52835695456739983911	      3.71121954173515167241	     41.69951183215705015073	      0.00000000000000000000	      0.00000000000000000000	     82.82899479303267753494	    -13.99646966275467718788	     57.10942563236780955549	     15.49416812710372504114	     77.54324534304711846744	      0.00000000000000000000	      0.00000000000000000000
     14.28500000000000014211	     32.43142217216453104811	     -4.67080066494075119010	   -177.94747291072857819927	      0.29582628984169517805	      0.80239149187230851545	     -0.95059182425115051895	     65.73765581992803674893	    -38.53246674657597026226	    -19.64364492342811985282	     30.45060924640458566159	      0.53146339058798930388	    -15.84427868342355516518	      0.00000000000000000000	      0.00000000000000000000	     58.99779699845836944405	    -28.61338686495806271637	    -23.88051037826095424066	     27.95316392167555363812	      0.48787474678292874763	    -12.32716671615415116037	      0.00000000000000000000	      0.00000000000000000000	    -64.49863532431206181172	      1.05007187972356041961	     -2.84671966551328559092	     76.35292496731355527118	    -11.37062562898241857567	     53.36555353648505928277	      3.63327739149321171652	     42.31963439806663274112	      0.00000000000000000000	      0.00000000000000000000	     82.81992598356296753082	    -13.50377933254377182948	     54.93137935610444344547	     14.78974624708638607729	     80.71957926501460178770	      0.00000000000000000000	      0.00000000000000000000
     14.28999999999999914735	     32.41376894360478644330	     -4.68581844535422842313	   -177.99512521622767735607	      0.29576831804568709527	      0.80234896556746815310	     -0.95073168033849264624	     65.74551218902071525463	    -38.47891895562472086567	    -19.56972937059539319193	     30.43811267056378966345	      0.53124528419434224880	    -15.81755551663250258798	      0.00000000000000000000	      0.00000000000000000000	     58.96229558082183785928	    -28.66512490470212171090	    -23.95235944042004661014	     27.96883952430502162656	      0.48814833766104726021	    -12.32793174650680967375	      0.00000000000000000000	      0.00000000000000000000	    -64.50931318067821962359	      0.97890637637274569016	     -2.83138229665052376660	     76.29425484688511005515	    -11.42998632413946680231	     53.45797064515230090365	      3.77403886628657714297	     42.15381352356165223227	      0.00000000000000000000	      0.00000000000000000000	     82.82243869140276615326	    -13.55415113053300935064	     55.76130599809814469836	     14.85857390182646220467	     78.35260669424022239582	      0.00000000000000000000	      0.00000000000000000000
     14.29499999999999992895	     32.36027062342117233129	     -4.69170905023105255793	   -177.91998210834265137237	      0.29569551872333488252	      0.80237085099341443062	     -0.95062442531060609152	     65.68740285259359268366	    -38.57609481162702280699	    -19.62088023663401514796	     30.49585095314624894058	      0.53225300732985303398	    -15.77112003652950988908	      0.00000000000000000000	      0.00000000000000000000	     58.93740022212958962200	    -28.59701503432471980659	    -23.90388378339036634657	     27.98938887948838072361	      0.48850699156815863278	    -12.31493348762891493209	      0.00000000000000000000	      0.00000000000000000000	    -64.56559787870243383168	      1.03930584339257792159	     -2.88410203516144791891	     76.35112763498523236194	    -11.39058017717858106721	     53.47673655810092441243	      3.66221432481824660243	     42.06335870792911180160	      0.00000000000000000000	      0.00000000000000000000	     82.88591053137832886932	    -13.88363828125100418731	     56.88747305086175032329	     15.34024146931624166257	     78.41892372557282442358	      0.00000000000000000000	      0.00000000000000000000
     14.30000000000000071054	     32.37769239224719086678	     -4.71931620967731735306	   -177.96697525370393577759	      0.29572157723653669237	      0.80224737694736802940	     -0.95073449872948612160	     65.75892215353671588218	    -38.52349840393539892602	    -19.48313229974863958205	     30.48980473112669287161	      0.53214748084830520991	    -15.75447196374672209629	      0.00000000000000000000	      0.00000000000000000000	     58.94629987837200957301	    -28.63731181415437276883	    -23.95535064978214734310	     28.02796464128959286199	      0.48918026562305483296	    -12.29451071014095653311	      0.00000000000000000000	      0.00000000000000000000	    -64.53858516882945650650	      0.96676235251551356775	     -2.86206709358246591535	     76.31588287481976351501	    -11.47564768887871977654	     53.58586386872436690965	      3.76735686182356355189	     42.17783460592941224832	      0.00000000000000000000	      0.00000000000000000000	     82.87539727323573401918	    -13.74933014074321668829	     56.76754499018520050413	     15.15759037425725352932	     77.98099070257156029129	      0.00000000000000000000	      0.00000000000000000000
